<?xml version="1.0" encoding="UTF-8" standalone="no"?>
<svg
   height="660"
   width="900"
   version="1.1"
   id="svg18"
   sodipodi:docname="IN000039.svg"
   inkscape:version="1.2.1 (9c6d41e410, 2022-07-14)"
   xmlns:inkscape="http://www.inkscape.org/namespaces/inkscape"
   xmlns:sodipodi="http://sodipodi.sourceforge.net/DTD/sodipodi-0.dtd"
   xmlns="http://www.w3.org/2000/svg"
   xmlns:svg="http://www.w3.org/2000/svg">
  <defs
     id="defs22" />
  <sodipodi:namedview
     id="namedview20"
     pagecolor="#ffffff"
     bordercolor="#666666"
     borderopacity="1.0"
     inkscape:showpageshadow="2"
     inkscape:pageopacity="0.0"
     inkscape:pagecheckerboard="0"
     inkscape:deskcolor="#d1d1d1"
     showgrid="false"
     inkscape:zoom="0.349375"
     inkscape:cx="343.47048"
     inkscape:cy="123.07692"
     inkscape:window-width="1366"
     inkscape:window-height="693"
     inkscape:window-x="0"
     inkscape:window-y="0"
     inkscape:window-maximized="1"
     inkscape:current-layer="svg18" />
  <rect
     style="fill:#f9f9f9;fill-opacity:1;stroke:none;stroke-width:8.79193;paint-order:markers stroke fill"
     id="rect2363"
     width="900"
     height="660"
     x="0"
     y="0" />
  <g
     transform="matrix(4.636453,0,0,4.636453,-2896.4118,-794.32113)"
     id="g16">
    <g
       fill="#333333"
       id="g10">
      <path
         style="color:#000000;text-indent:0;text-decoration-line:none;text-transform:none"
         d="m 713.09,278.5 v 3 62.062 3 h 3 141.56 3 v -3 -65.062 h -5.8712 l -0.12879,62.062 h -135.56 V 284.5 h 115.34 v -6 h -118.34 z"
         transform="translate(-72.786,-85.361)"
         id="path2" />
      <path
         d="m 747.71,313.26 c -2e-5,-5.1406 -0.53127,-8.8125 -1.5938,-11.016 -1.0469,-2.2031 -2.7735,-3.3047 -5.1797,-3.3047 -2.3906,3e-5 -4.1172,1.1016 -5.1797,3.3047 -1.0469,2.2032 -1.5703,5.875 -1.5703,11.016 -10e-6,5.125 0.52343,8.7891 1.5703,10.992 1.0625,2.2031 2.789,3.3047 5.1797,3.3047 2.4062,0 4.1328,-1.0938 5.1797,-3.2812 1.0625,-2.2031 1.5937,-5.875 1.5938,-11.016 m 4.9453,0 c -3e-5,6.0938 -0.96878,10.641 -2.9062,13.641 -1.9219,3 -4.8594,4.5 -8.8125,4.5 -3.9531,0 -6.8906,-1.4922 -8.8125,-4.4766 -1.9219,-2.9844 -2.8828,-7.539 -2.8828,-13.664 0,-6.1094 0.96093,-10.664 2.8828,-13.664 1.9375,-3 4.875,-4.5 8.8125,-4.5 3.9531,4e-5 6.8906,1.5 8.8125,4.5 1.9375,3 2.9062,7.5547 2.9062,13.664"
         transform="translate(-72.786,-85.361)"
         id="path4" />
      <path
         d="m 779.1,296.93 v 4.8047 c -1.4375,-0.92184 -2.8828,-1.6172 -4.3359,-2.0859 -1.4375,-0.46871 -2.8906,-0.70309 -4.3594,-0.70312 -2.2344,3e-5 -4,0.52347 -5.2969,1.5703 -1.2969,1.0313 -1.9453,2.4297 -1.9453,4.1953 -10e-6,1.5469 0.42187,2.7266 1.2656,3.5391 0.85936,0.81252 2.4531,1.4922 4.7812,2.0391 l 2.4844,0.5625 c 3.2812,0.76564 5.6718,1.9688 7.1719,3.6094 1.5,1.6406 2.25,3.875 2.25,6.7031 -3e-5,3.3281 -1.0313,5.8672 -3.0938,7.6172 -2.0625,1.75 -5.0625,2.625 -9,2.625 -1.6406,0 -3.2891,-0.17969 -4.9453,-0.53907 -1.6562,-0.34375 -3.3203,-0.86718 -4.9922,-1.5703 v -5.0391 c 1.7969,1.1406 3.4922,1.9766 5.0859,2.5078 1.6094,0.53126 3.2266,0.79688 4.8516,0.79688 2.3906,0 4.25,-0.53125 5.5781,-1.5938 1.3281,-1.0781 1.9922,-2.5781 1.9922,-4.5 -2e-5,-1.75 -0.46096,-3.0859 -1.3828,-4.0078 -0.90627,-0.92186 -2.4922,-1.6328 -4.7578,-2.1328 l -2.5312,-0.58594 c -3.25,-0.73435 -5.6094,-1.8437 -7.0781,-3.3281 -1.4688,-1.4844 -2.2031,-3.4765 -2.2031,-5.9766 0,-3.125 1.0469,-5.625 3.1406,-7.5 2.1094,-1.8906 4.9062,-2.8359 8.3906,-2.8359 1.3437,4e-5 2.7578,0.15629 4.2422,0.46875 1.4844,0.29691 3.0468,0.75003 4.6875,1.3594"
         transform="translate(-72.786,-85.361)"
         id="path6" />
      <path
         d="m 787.46,295.73 h 4.7578 v 14.344 h 12.961 V 295.73 h 4.7578 v 34.992 h -4.7578 v -16.664 h -12.961 v 16.664 H 787.46 V 295.73"
         transform="translate(-72.786,-85.361)"
         id="path8" />
    </g>
    <path
       d="m 813.13,295.73 h 4.6172 l 3.3516,28.406 3.9844,-18.797 h 4.9453 l 4.0312,18.844 11.352,-54.453 h 4.6172 l -13.227,60.992 h -4.4766 l -4.7578,-20.789 -4.7344,20.789 h -4.4766 l -5.2266,-34.992"
       transform="translate(-72.786,-85.361)"
       fill="#ff4444"
       id="path12" />
    <text
       xml:space="preserve"
       fill="#333333"
       font-size="33.75px"
       y="300.14502"
       x="642.95532"
       font-family="'DejaVu Sans Mono', 'Andale Mono', monospace"
       id="text14">IN000039</text>
  </g>
</svg>
